<?xml version="1.0" standalone="no"?><!DOCTYPE svg PUBLIC "-//W3C//DTD SVG 1.1//EN" "http://www.w3.org/Graphics/SVG/1.1/DTD/svg11.dtd"><svg t="1596699688047" class="icon" viewBox="0 0 1024 1024" version="1.1" xmlns="http://www.w3.org/2000/svg" p-id="3494" xmlns:xlink="http://www.w3.org/1999/xlink" width="200" height="200"><defs><style type="text/css"></style></defs><path d="M904.533333 462.933333L539.733333 98.133333c-14.933333-14.933333-38.4-14.933333-53.333333 0L119.466667 462.933333c-8.533333 8.533333-8.533333 21.333333 0 29.866667s21.333333 8.533333 29.866666 0l42.666667-42.666667V810.666667c0 36.266667 27.733333 64 64 64h512c36.266667 0 64-27.733333 64-64V452.266667l42.666667 42.666666c4.266667 4.266667 10.666667 6.4 14.933333 6.4s10.666667-2.133333 14.933333-6.4c8.533333-10.666667 8.533333-23.466667 0-32zM789.333333 810.666667c0 12.8-8.533333 21.333333-21.333333 21.333333H256c-12.8 0-21.333333-8.533333-21.333333-21.333333V409.6l277.333333-277.333333 277.333333 277.333333V810.666667z" p-id="3495" fill="#515151"></path><path d="M341.333333 704c0 12.8 8.533333 21.333333 21.333334 21.333333h298.666666c12.8 0 21.333333-8.533333 21.333334-21.333333s-8.533333-21.333333-21.333334-21.333333H362.666667c-12.8 0-21.333333 8.533333-21.333334 21.333333z" p-id="3496" fill="#515151"></path></svg>